<mxfile host="Electron" agent="Mozilla/5.0 (Macintosh; Intel Mac OS X 10_15_7) AppleWebKit/537.36 (KHTML, like Gecko) draw.io/28.0.4 Chrome/138.0.7204.97 Electron/37.2.1 Safari/537.36" version="28.0.4">
  <diagram name="Pagina-1" id="u239A01-i-xrM37eTv4Y">
    <mxGraphModel dx="1480" dy="1803" grid="1" gridSize="10" guides="1" tooltips="1" connect="1" arrows="1" fold="1" page="1" pageScale="1" pageWidth="827" pageHeight="1169" math="0" shadow="0">
      <root>
        <mxCell id="0" />
        <mxCell id="1" parent="0" />
        <mxCell id="2JEYmWJFFLFLOrOE8Tzi-5" value="Sottospecie" style="shape=table;startSize=30;container=1;collapsible=1;childLayout=tableLayout;fixedRows=1;rowLines=0;fontStyle=1;align=center;resizeLast=1;html=1;fillColor=#f0a30a;fontColor=#000000;strokeColor=#BD7000;" vertex="1" parent="1">
          <mxGeometry x="280" y="40" width="180" height="150" as="geometry" />
        </mxCell>
        <mxCell id="2JEYmWJFFLFLOrOE8Tzi-6" value="" style="shape=tableRow;horizontal=0;startSize=0;swimlaneHead=0;swimlaneBody=0;fillColor=none;collapsible=0;dropTarget=0;points=[[0,0.5],[1,0.5]];portConstraint=eastwest;top=0;left=0;right=0;bottom=1;" vertex="1" parent="2JEYmWJFFLFLOrOE8Tzi-5">
          <mxGeometry y="30" width="180" height="30" as="geometry" />
        </mxCell>
        <mxCell id="2JEYmWJFFLFLOrOE8Tzi-7" value="PK" style="shape=partialRectangle;connectable=0;fillColor=#60a917;top=0;left=0;bottom=0;right=0;fontStyle=1;overflow=hidden;whiteSpace=wrap;html=1;fontColor=#ffffff;strokeColor=#2D7600;" vertex="1" parent="2JEYmWJFFLFLOrOE8Tzi-6">
          <mxGeometry width="30" height="30" as="geometry">
            <mxRectangle width="30" height="30" as="alternateBounds" />
          </mxGeometry>
        </mxCell>
        <mxCell id="2JEYmWJFFLFLOrOE8Tzi-8" value="id_sotto_specie" style="shape=partialRectangle;connectable=0;fillColor=#60a917;top=0;left=0;bottom=0;right=0;align=left;spacingLeft=6;fontStyle=5;overflow=hidden;whiteSpace=wrap;html=1;fontColor=#ffffff;strokeColor=#2D7600;" vertex="1" parent="2JEYmWJFFLFLOrOE8Tzi-6">
          <mxGeometry x="30" width="150" height="30" as="geometry">
            <mxRectangle width="150" height="30" as="alternateBounds" />
          </mxGeometry>
        </mxCell>
        <mxCell id="2JEYmWJFFLFLOrOE8Tzi-9" value="" style="shape=tableRow;horizontal=0;startSize=0;swimlaneHead=0;swimlaneBody=0;fillColor=none;collapsible=0;dropTarget=0;points=[[0,0.5],[1,0.5]];portConstraint=eastwest;top=0;left=0;right=0;bottom=0;" vertex="1" parent="2JEYmWJFFLFLOrOE8Tzi-5">
          <mxGeometry y="60" width="180" height="30" as="geometry" />
        </mxCell>
        <mxCell id="2JEYmWJFFLFLOrOE8Tzi-10" value="" style="shape=partialRectangle;connectable=0;fillColor=none;top=0;left=0;bottom=0;right=0;editable=1;overflow=hidden;whiteSpace=wrap;html=1;" vertex="1" parent="2JEYmWJFFLFLOrOE8Tzi-9">
          <mxGeometry width="30" height="30" as="geometry">
            <mxRectangle width="30" height="30" as="alternateBounds" />
          </mxGeometry>
        </mxCell>
        <mxCell id="2JEYmWJFFLFLOrOE8Tzi-11" value="anno" style="shape=partialRectangle;connectable=0;fillColor=none;top=0;left=0;bottom=0;right=0;align=left;spacingLeft=6;overflow=hidden;whiteSpace=wrap;html=1;" vertex="1" parent="2JEYmWJFFLFLOrOE8Tzi-9">
          <mxGeometry x="30" width="150" height="30" as="geometry">
            <mxRectangle width="150" height="30" as="alternateBounds" />
          </mxGeometry>
        </mxCell>
        <mxCell id="2JEYmWJFFLFLOrOE8Tzi-12" value="" style="shape=tableRow;horizontal=0;startSize=0;swimlaneHead=0;swimlaneBody=0;fillColor=none;collapsible=0;dropTarget=0;points=[[0,0.5],[1,0.5]];portConstraint=eastwest;top=0;left=0;right=0;bottom=0;" vertex="1" parent="2JEYmWJFFLFLOrOE8Tzi-5">
          <mxGeometry y="90" width="180" height="30" as="geometry" />
        </mxCell>
        <mxCell id="2JEYmWJFFLFLOrOE8Tzi-13" value="" style="shape=partialRectangle;connectable=0;fillColor=none;top=0;left=0;bottom=0;right=0;editable=1;overflow=hidden;whiteSpace=wrap;html=1;" vertex="1" parent="2JEYmWJFFLFLOrOE8Tzi-12">
          <mxGeometry width="30" height="30" as="geometry">
            <mxRectangle width="30" height="30" as="alternateBounds" />
          </mxGeometry>
        </mxCell>
        <mxCell id="2JEYmWJFFLFLOrOE8Tzi-14" value="tipologia" style="shape=partialRectangle;connectable=0;fillColor=none;top=0;left=0;bottom=0;right=0;align=left;spacingLeft=6;overflow=hidden;whiteSpace=wrap;html=1;" vertex="1" parent="2JEYmWJFFLFLOrOE8Tzi-12">
          <mxGeometry x="30" width="150" height="30" as="geometry">
            <mxRectangle width="150" height="30" as="alternateBounds" />
          </mxGeometry>
        </mxCell>
        <mxCell id="2JEYmWJFFLFLOrOE8Tzi-15" value="" style="shape=tableRow;horizontal=0;startSize=0;swimlaneHead=0;swimlaneBody=0;fillColor=none;collapsible=0;dropTarget=0;points=[[0,0.5],[1,0.5]];portConstraint=eastwest;top=0;left=0;right=0;bottom=0;" vertex="1" parent="2JEYmWJFFLFLOrOE8Tzi-5">
          <mxGeometry y="120" width="180" height="30" as="geometry" />
        </mxCell>
        <mxCell id="2JEYmWJFFLFLOrOE8Tzi-16" value="" style="shape=partialRectangle;connectable=0;fillColor=none;top=0;left=0;bottom=0;right=0;editable=1;overflow=hidden;whiteSpace=wrap;html=1;" vertex="1" parent="2JEYmWJFFLFLOrOE8Tzi-15">
          <mxGeometry width="30" height="30" as="geometry">
            <mxRectangle width="30" height="30" as="alternateBounds" />
          </mxGeometry>
        </mxCell>
        <mxCell id="2JEYmWJFFLFLOrOE8Tzi-17" value="" style="shape=partialRectangle;connectable=0;fillColor=none;top=0;left=0;bottom=0;right=0;align=left;spacingLeft=6;overflow=hidden;whiteSpace=wrap;html=1;" vertex="1" parent="2JEYmWJFFLFLOrOE8Tzi-15">
          <mxGeometry x="30" width="150" height="30" as="geometry">
            <mxRectangle width="150" height="30" as="alternateBounds" />
          </mxGeometry>
        </mxCell>
        <mxCell id="2JEYmWJFFLFLOrOE8Tzi-18" value="Cespite" style="shape=table;startSize=30;container=1;collapsible=1;childLayout=tableLayout;fixedRows=1;rowLines=0;fontStyle=1;align=center;resizeLast=1;html=1;fillColor=#f0a30a;fontColor=#000000;strokeColor=#BD7000;" vertex="1" parent="1">
          <mxGeometry x="670" y="160" width="180" height="330.0000000000002" as="geometry" />
        </mxCell>
        <mxCell id="2JEYmWJFFLFLOrOE8Tzi-19" value="" style="shape=tableRow;horizontal=0;startSize=0;swimlaneHead=0;swimlaneBody=0;fillColor=#60a917;collapsible=0;dropTarget=0;points=[[0,0.5],[1,0.5]];portConstraint=eastwest;top=0;left=0;right=0;bottom=1;fontColor=#ffffff;strokeColor=#2D7600;" vertex="1" parent="2JEYmWJFFLFLOrOE8Tzi-18">
          <mxGeometry y="30" width="180" height="30" as="geometry" />
        </mxCell>
        <mxCell id="2JEYmWJFFLFLOrOE8Tzi-20" value="PK" style="shape=partialRectangle;connectable=0;fillColor=none;top=0;left=0;bottom=0;right=0;fontStyle=1;overflow=hidden;whiteSpace=wrap;html=1;" vertex="1" parent="2JEYmWJFFLFLOrOE8Tzi-19">
          <mxGeometry width="30" height="30" as="geometry">
            <mxRectangle width="30" height="30" as="alternateBounds" />
          </mxGeometry>
        </mxCell>
        <mxCell id="2JEYmWJFFLFLOrOE8Tzi-21" value="id_cespite" style="shape=partialRectangle;connectable=0;fillColor=none;top=0;left=0;bottom=0;right=0;align=left;spacingLeft=6;fontStyle=5;overflow=hidden;whiteSpace=wrap;html=1;" vertex="1" parent="2JEYmWJFFLFLOrOE8Tzi-19">
          <mxGeometry x="30" width="150" height="30" as="geometry">
            <mxRectangle width="150" height="30" as="alternateBounds" />
          </mxGeometry>
        </mxCell>
        <mxCell id="2JEYmWJFFLFLOrOE8Tzi-22" value="" style="shape=tableRow;horizontal=0;startSize=0;swimlaneHead=0;swimlaneBody=0;fillColor=#0050ef;collapsible=0;dropTarget=0;points=[[0,0.5],[1,0.5]];portConstraint=eastwest;top=0;left=0;right=0;bottom=0;fontColor=#ffffff;strokeColor=#001DBC;" vertex="1" parent="2JEYmWJFFLFLOrOE8Tzi-18">
          <mxGeometry y="60" width="180" height="30" as="geometry" />
        </mxCell>
        <mxCell id="2JEYmWJFFLFLOrOE8Tzi-23" value="FK" style="shape=partialRectangle;connectable=0;fillColor=none;top=0;left=0;bottom=0;right=0;editable=1;overflow=hidden;whiteSpace=wrap;html=1;fontStyle=1" vertex="1" parent="2JEYmWJFFLFLOrOE8Tzi-22">
          <mxGeometry width="30" height="30" as="geometry">
            <mxRectangle width="30" height="30" as="alternateBounds" />
          </mxGeometry>
        </mxCell>
        <mxCell id="2JEYmWJFFLFLOrOE8Tzi-24" value="id_sotto_specie" style="shape=partialRectangle;connectable=0;fillColor=none;top=0;left=0;bottom=0;right=0;align=left;spacingLeft=6;overflow=hidden;whiteSpace=wrap;html=1;fontStyle=1" vertex="1" parent="2JEYmWJFFLFLOrOE8Tzi-22">
          <mxGeometry x="30" width="150" height="30" as="geometry">
            <mxRectangle width="150" height="30" as="alternateBounds" />
          </mxGeometry>
        </mxCell>
        <mxCell id="2JEYmWJFFLFLOrOE8Tzi-147" value="" style="shape=tableRow;horizontal=0;startSize=0;swimlaneHead=0;swimlaneBody=0;fillColor=#0050ef;collapsible=0;dropTarget=0;points=[[0,0.5],[1,0.5]];portConstraint=eastwest;top=0;left=0;right=0;bottom=0;fontColor=#ffffff;strokeColor=#001DBC;" vertex="1" parent="2JEYmWJFFLFLOrOE8Tzi-18">
          <mxGeometry y="90" width="180" height="30" as="geometry" />
        </mxCell>
        <mxCell id="2JEYmWJFFLFLOrOE8Tzi-148" value="FK" style="shape=partialRectangle;connectable=0;fillColor=none;top=0;left=0;bottom=0;right=0;editable=1;overflow=hidden;whiteSpace=wrap;html=1;fontStyle=1" vertex="1" parent="2JEYmWJFFLFLOrOE8Tzi-147">
          <mxGeometry width="30" height="30" as="geometry">
            <mxRectangle width="30" height="30" as="alternateBounds" />
          </mxGeometry>
        </mxCell>
        <mxCell id="2JEYmWJFFLFLOrOE8Tzi-149" value="id_sede" style="shape=partialRectangle;connectable=0;fillColor=none;top=0;left=0;bottom=0;right=0;align=left;spacingLeft=6;overflow=hidden;whiteSpace=wrap;html=1;fontStyle=1" vertex="1" parent="2JEYmWJFFLFLOrOE8Tzi-147">
          <mxGeometry x="30" width="150" height="30" as="geometry">
            <mxRectangle width="150" height="30" as="alternateBounds" />
          </mxGeometry>
        </mxCell>
        <mxCell id="2JEYmWJFFLFLOrOE8Tzi-28" value="" style="shape=tableRow;horizontal=0;startSize=0;swimlaneHead=0;swimlaneBody=0;fillColor=none;collapsible=0;dropTarget=0;points=[[0,0.5],[1,0.5]];portConstraint=eastwest;top=0;left=0;right=0;bottom=0;" vertex="1" parent="2JEYmWJFFLFLOrOE8Tzi-18">
          <mxGeometry y="120" width="180" height="30" as="geometry" />
        </mxCell>
        <mxCell id="2JEYmWJFFLFLOrOE8Tzi-29" value="" style="shape=partialRectangle;connectable=0;fillColor=none;top=0;left=0;bottom=0;right=0;editable=1;overflow=hidden;whiteSpace=wrap;html=1;" vertex="1" parent="2JEYmWJFFLFLOrOE8Tzi-28">
          <mxGeometry width="30" height="30" as="geometry">
            <mxRectangle width="30" height="30" as="alternateBounds" />
          </mxGeometry>
        </mxCell>
        <mxCell id="2JEYmWJFFLFLOrOE8Tzi-30" value="anno_arrivo_cespite" style="shape=partialRectangle;connectable=0;fillColor=none;top=0;left=0;bottom=0;right=0;align=left;spacingLeft=6;overflow=hidden;whiteSpace=wrap;html=1;" vertex="1" parent="2JEYmWJFFLFLOrOE8Tzi-28">
          <mxGeometry x="30" width="150" height="30" as="geometry">
            <mxRectangle width="150" height="30" as="alternateBounds" />
          </mxGeometry>
        </mxCell>
        <mxCell id="2JEYmWJFFLFLOrOE8Tzi-37" value="" style="shape=tableRow;horizontal=0;startSize=0;swimlaneHead=0;swimlaneBody=0;fillColor=none;collapsible=0;dropTarget=0;points=[[0,0.5],[1,0.5]];portConstraint=eastwest;top=0;left=0;right=0;bottom=0;" vertex="1" parent="2JEYmWJFFLFLOrOE8Tzi-18">
          <mxGeometry y="150" width="180" height="30" as="geometry" />
        </mxCell>
        <mxCell id="2JEYmWJFFLFLOrOE8Tzi-38" value="" style="shape=partialRectangle;connectable=0;fillColor=none;top=0;left=0;bottom=0;right=0;editable=1;overflow=hidden;whiteSpace=wrap;html=1;" vertex="1" parent="2JEYmWJFFLFLOrOE8Tzi-37">
          <mxGeometry width="30" height="30" as="geometry">
            <mxRectangle width="30" height="30" as="alternateBounds" />
          </mxGeometry>
        </mxCell>
        <mxCell id="2JEYmWJFFLFLOrOE8Tzi-39" value="nome_articolo" style="shape=partialRectangle;connectable=0;fillColor=none;top=0;left=0;bottom=0;right=0;align=left;spacingLeft=6;overflow=hidden;whiteSpace=wrap;html=1;" vertex="1" parent="2JEYmWJFFLFLOrOE8Tzi-37">
          <mxGeometry x="30" width="150" height="30" as="geometry">
            <mxRectangle width="150" height="30" as="alternateBounds" />
          </mxGeometry>
        </mxCell>
        <mxCell id="2JEYmWJFFLFLOrOE8Tzi-42" value="" style="shape=tableRow;horizontal=0;startSize=0;swimlaneHead=0;swimlaneBody=0;fillColor=none;collapsible=0;dropTarget=0;points=[[0,0.5],[1,0.5]];portConstraint=eastwest;top=0;left=0;right=0;bottom=0;" vertex="1" parent="2JEYmWJFFLFLOrOE8Tzi-18">
          <mxGeometry y="180" width="180" height="30" as="geometry" />
        </mxCell>
        <mxCell id="2JEYmWJFFLFLOrOE8Tzi-43" value="" style="shape=partialRectangle;connectable=0;fillColor=none;top=0;left=0;bottom=0;right=0;editable=1;overflow=hidden;whiteSpace=wrap;html=1;" vertex="1" parent="2JEYmWJFFLFLOrOE8Tzi-42">
          <mxGeometry width="30" height="30" as="geometry">
            <mxRectangle width="30" height="30" as="alternateBounds" />
          </mxGeometry>
        </mxCell>
        <mxCell id="2JEYmWJFFLFLOrOE8Tzi-44" value="descrizione" style="shape=partialRectangle;connectable=0;fillColor=none;top=0;left=0;bottom=0;right=0;align=left;spacingLeft=6;overflow=hidden;whiteSpace=wrap;html=1;" vertex="1" parent="2JEYmWJFFLFLOrOE8Tzi-42">
          <mxGeometry x="30" width="150" height="30" as="geometry">
            <mxRectangle width="150" height="30" as="alternateBounds" />
          </mxGeometry>
        </mxCell>
        <mxCell id="2JEYmWJFFLFLOrOE8Tzi-45" value="" style="shape=tableRow;horizontal=0;startSize=0;swimlaneHead=0;swimlaneBody=0;fillColor=none;collapsible=0;dropTarget=0;points=[[0,0.5],[1,0.5]];portConstraint=eastwest;top=0;left=0;right=0;bottom=0;" vertex="1" parent="2JEYmWJFFLFLOrOE8Tzi-18">
          <mxGeometry y="210" width="180" height="30" as="geometry" />
        </mxCell>
        <mxCell id="2JEYmWJFFLFLOrOE8Tzi-46" value="" style="shape=partialRectangle;connectable=0;fillColor=none;top=0;left=0;bottom=0;right=0;editable=1;overflow=hidden;whiteSpace=wrap;html=1;" vertex="1" parent="2JEYmWJFFLFLOrOE8Tzi-45">
          <mxGeometry width="30" height="30" as="geometry">
            <mxRectangle width="30" height="30" as="alternateBounds" />
          </mxGeometry>
        </mxCell>
        <mxCell id="2JEYmWJFFLFLOrOE8Tzi-47" value="qta_acquistata" style="shape=partialRectangle;connectable=0;fillColor=none;top=0;left=0;bottom=0;right=0;align=left;spacingLeft=6;overflow=hidden;whiteSpace=wrap;html=1;" vertex="1" parent="2JEYmWJFFLFLOrOE8Tzi-45">
          <mxGeometry x="30" width="150" height="30" as="geometry">
            <mxRectangle width="150" height="30" as="alternateBounds" />
          </mxGeometry>
        </mxCell>
        <mxCell id="2JEYmWJFFLFLOrOE8Tzi-48" value="" style="shape=tableRow;horizontal=0;startSize=0;swimlaneHead=0;swimlaneBody=0;fillColor=none;collapsible=0;dropTarget=0;points=[[0,0.5],[1,0.5]];portConstraint=eastwest;top=0;left=0;right=0;bottom=0;" vertex="1" parent="2JEYmWJFFLFLOrOE8Tzi-18">
          <mxGeometry y="240" width="180" height="30" as="geometry" />
        </mxCell>
        <mxCell id="2JEYmWJFFLFLOrOE8Tzi-49" value="" style="shape=partialRectangle;connectable=0;fillColor=none;top=0;left=0;bottom=0;right=0;editable=1;overflow=hidden;whiteSpace=wrap;html=1;" vertex="1" parent="2JEYmWJFFLFLOrOE8Tzi-48">
          <mxGeometry width="30" height="30" as="geometry">
            <mxRectangle width="30" height="30" as="alternateBounds" />
          </mxGeometry>
        </mxCell>
        <mxCell id="2JEYmWJFFLFLOrOE8Tzi-50" value="smaltito" style="shape=partialRectangle;connectable=0;fillColor=none;top=0;left=0;bottom=0;right=0;align=left;spacingLeft=6;overflow=hidden;whiteSpace=wrap;html=1;" vertex="1" parent="2JEYmWJFFLFLOrOE8Tzi-48">
          <mxGeometry x="30" width="150" height="30" as="geometry">
            <mxRectangle width="150" height="30" as="alternateBounds" />
          </mxGeometry>
        </mxCell>
        <mxCell id="2JEYmWJFFLFLOrOE8Tzi-51" value="" style="shape=tableRow;horizontal=0;startSize=0;swimlaneHead=0;swimlaneBody=0;fillColor=none;collapsible=0;dropTarget=0;points=[[0,0.5],[1,0.5]];portConstraint=eastwest;top=0;left=0;right=0;bottom=0;" vertex="1" parent="2JEYmWJFFLFLOrOE8Tzi-18">
          <mxGeometry y="270" width="180" height="30" as="geometry" />
        </mxCell>
        <mxCell id="2JEYmWJFFLFLOrOE8Tzi-52" value="" style="shape=partialRectangle;connectable=0;fillColor=none;top=0;left=0;bottom=0;right=0;editable=1;overflow=hidden;whiteSpace=wrap;html=1;" vertex="1" parent="2JEYmWJFFLFLOrOE8Tzi-51">
          <mxGeometry width="30" height="30" as="geometry">
            <mxRectangle width="30" height="30" as="alternateBounds" />
          </mxGeometry>
        </mxCell>
        <mxCell id="2JEYmWJFFLFLOrOE8Tzi-53" value="da_smaltire" style="shape=partialRectangle;connectable=0;fillColor=none;top=0;left=0;bottom=0;right=0;align=left;spacingLeft=6;overflow=hidden;whiteSpace=wrap;html=1;" vertex="1" parent="2JEYmWJFFLFLOrOE8Tzi-51">
          <mxGeometry x="30" width="150" height="30" as="geometry">
            <mxRectangle width="150" height="30" as="alternateBounds" />
          </mxGeometry>
        </mxCell>
        <mxCell id="2JEYmWJFFLFLOrOE8Tzi-100" value="" style="shape=tableRow;horizontal=0;startSize=0;swimlaneHead=0;swimlaneBody=0;fillColor=none;collapsible=0;dropTarget=0;points=[[0,0.5],[1,0.5]];portConstraint=eastwest;top=0;left=0;right=0;bottom=0;" vertex="1" parent="2JEYmWJFFLFLOrOE8Tzi-18">
          <mxGeometry y="300" width="180" height="30" as="geometry" />
        </mxCell>
        <mxCell id="2JEYmWJFFLFLOrOE8Tzi-101" value="" style="shape=partialRectangle;connectable=0;fillColor=none;top=0;left=0;bottom=0;right=0;editable=1;overflow=hidden;whiteSpace=wrap;html=1;" vertex="1" parent="2JEYmWJFFLFLOrOE8Tzi-100">
          <mxGeometry width="30" height="30" as="geometry">
            <mxRectangle width="30" height="30" as="alternateBounds" />
          </mxGeometry>
        </mxCell>
        <mxCell id="2JEYmWJFFLFLOrOE8Tzi-102" value="ufficio" style="shape=partialRectangle;connectable=0;fillColor=none;top=0;left=0;bottom=0;right=0;align=left;spacingLeft=6;overflow=hidden;whiteSpace=wrap;html=1;" vertex="1" parent="2JEYmWJFFLFLOrOE8Tzi-100">
          <mxGeometry x="30" width="150" height="30" as="geometry">
            <mxRectangle width="150" height="30" as="alternateBounds" />
          </mxGeometry>
        </mxCell>
        <mxCell id="2JEYmWJFFLFLOrOE8Tzi-41" value="SI/NO" style="text;html=1;align=center;verticalAlign=middle;resizable=0;points=[];autosize=1;strokeColor=none;fillColor=none;" vertex="1" parent="1">
          <mxGeometry x="950" y="430" width="60" height="30" as="geometry" />
        </mxCell>
        <mxCell id="2JEYmWJFFLFLOrOE8Tzi-57" style="edgeStyle=orthogonalEdgeStyle;rounded=0;orthogonalLoop=1;jettySize=auto;html=1;entryX=0.5;entryY=0;entryDx=0;entryDy=0;fillColor=#1ba1e2;strokeColor=#006EAF;strokeWidth=2;" edge="1" parent="1" source="2JEYmWJFFLFLOrOE8Tzi-6" target="2JEYmWJFFLFLOrOE8Tzi-18">
          <mxGeometry relative="1" as="geometry" />
        </mxCell>
        <mxCell id="2JEYmWJFFLFLOrOE8Tzi-71" value="Etichetta" style="shape=table;startSize=30;container=1;collapsible=1;childLayout=tableLayout;fixedRows=1;rowLines=0;fontStyle=1;align=center;resizeLast=1;html=1;fillColor=#f0a30a;fontColor=#000000;strokeColor=#BD7000;" vertex="1" parent="1">
          <mxGeometry x="-40" y="240" width="180" height="120" as="geometry" />
        </mxCell>
        <mxCell id="2JEYmWJFFLFLOrOE8Tzi-72" value="" style="shape=tableRow;horizontal=0;startSize=0;swimlaneHead=0;swimlaneBody=0;fillColor=#60a917;collapsible=0;dropTarget=0;points=[[0,0.5],[1,0.5]];portConstraint=eastwest;top=0;left=0;right=0;bottom=1;fontColor=#ffffff;strokeColor=#2D7600;" vertex="1" parent="2JEYmWJFFLFLOrOE8Tzi-71">
          <mxGeometry y="30" width="180" height="30" as="geometry" />
        </mxCell>
        <mxCell id="2JEYmWJFFLFLOrOE8Tzi-73" value="PK" style="shape=partialRectangle;connectable=0;fillColor=none;top=0;left=0;bottom=0;right=0;fontStyle=1;overflow=hidden;whiteSpace=wrap;html=1;" vertex="1" parent="2JEYmWJFFLFLOrOE8Tzi-72">
          <mxGeometry width="30" height="30" as="geometry">
            <mxRectangle width="30" height="30" as="alternateBounds" />
          </mxGeometry>
        </mxCell>
        <mxCell id="2JEYmWJFFLFLOrOE8Tzi-74" value="id_etichetta" style="shape=partialRectangle;connectable=0;fillColor=none;top=0;left=0;bottom=0;right=0;align=left;spacingLeft=6;fontStyle=5;overflow=hidden;whiteSpace=wrap;html=1;" vertex="1" parent="2JEYmWJFFLFLOrOE8Tzi-72">
          <mxGeometry x="30" width="150" height="30" as="geometry">
            <mxRectangle width="150" height="30" as="alternateBounds" />
          </mxGeometry>
        </mxCell>
        <mxCell id="2JEYmWJFFLFLOrOE8Tzi-75" value="" style="shape=tableRow;horizontal=0;startSize=0;swimlaneHead=0;swimlaneBody=0;fillColor=#0050ef;collapsible=0;dropTarget=0;points=[[0,0.5],[1,0.5]];portConstraint=eastwest;top=0;left=0;right=0;bottom=0;fontColor=#ffffff;strokeColor=#001DBC;" vertex="1" parent="2JEYmWJFFLFLOrOE8Tzi-71">
          <mxGeometry y="60" width="180" height="30" as="geometry" />
        </mxCell>
        <mxCell id="2JEYmWJFFLFLOrOE8Tzi-76" value="FK" style="shape=partialRectangle;connectable=0;fillColor=none;top=0;left=0;bottom=0;right=0;editable=1;overflow=hidden;whiteSpace=wrap;html=1;fontStyle=1" vertex="1" parent="2JEYmWJFFLFLOrOE8Tzi-75">
          <mxGeometry width="30" height="30" as="geometry">
            <mxRectangle width="30" height="30" as="alternateBounds" />
          </mxGeometry>
        </mxCell>
        <mxCell id="2JEYmWJFFLFLOrOE8Tzi-77" value="id_sotto_specie" style="shape=partialRectangle;connectable=0;fillColor=none;top=0;left=0;bottom=0;right=0;align=left;spacingLeft=6;overflow=hidden;whiteSpace=wrap;html=1;fontStyle=1" vertex="1" parent="2JEYmWJFFLFLOrOE8Tzi-75">
          <mxGeometry x="30" width="150" height="30" as="geometry">
            <mxRectangle width="150" height="30" as="alternateBounds" />
          </mxGeometry>
        </mxCell>
        <mxCell id="2JEYmWJFFLFLOrOE8Tzi-78" value="" style="shape=tableRow;horizontal=0;startSize=0;swimlaneHead=0;swimlaneBody=0;fillColor=#0050ef;collapsible=0;dropTarget=0;points=[[0,0.5],[1,0.5]];portConstraint=eastwest;top=0;left=0;right=0;bottom=0;fontColor=#ffffff;strokeColor=#001DBC;" vertex="1" parent="2JEYmWJFFLFLOrOE8Tzi-71">
          <mxGeometry y="90" width="180" height="30" as="geometry" />
        </mxCell>
        <mxCell id="2JEYmWJFFLFLOrOE8Tzi-79" value="FK" style="shape=partialRectangle;connectable=0;fillColor=none;top=0;left=0;bottom=0;right=0;editable=1;overflow=hidden;whiteSpace=wrap;html=1;fontStyle=1" vertex="1" parent="2JEYmWJFFLFLOrOE8Tzi-78">
          <mxGeometry width="30" height="30" as="geometry">
            <mxRectangle width="30" height="30" as="alternateBounds" />
          </mxGeometry>
        </mxCell>
        <mxCell id="2JEYmWJFFLFLOrOE8Tzi-80" value="id_cespite" style="shape=partialRectangle;connectable=0;fillColor=none;top=0;left=0;bottom=0;right=0;align=left;spacingLeft=6;overflow=hidden;whiteSpace=wrap;html=1;fontStyle=1" vertex="1" parent="2JEYmWJFFLFLOrOE8Tzi-78">
          <mxGeometry x="30" width="150" height="30" as="geometry">
            <mxRectangle width="150" height="30" as="alternateBounds" />
          </mxGeometry>
        </mxCell>
        <mxCell id="2JEYmWJFFLFLOrOE8Tzi-85" style="edgeStyle=orthogonalEdgeStyle;rounded=0;orthogonalLoop=1;jettySize=auto;html=1;exitX=0;exitY=0.5;exitDx=0;exitDy=0;entryX=0.45;entryY=-0.032;entryDx=0;entryDy=0;entryPerimeter=0;fillColor=#1ba1e2;strokeColor=#006EAF;strokeWidth=2;" edge="1" parent="1" source="2JEYmWJFFLFLOrOE8Tzi-6" target="2JEYmWJFFLFLOrOE8Tzi-71">
          <mxGeometry relative="1" as="geometry" />
        </mxCell>
        <mxCell id="2JEYmWJFFLFLOrOE8Tzi-86" style="edgeStyle=orthogonalEdgeStyle;rounded=0;orthogonalLoop=1;jettySize=auto;html=1;entryX=1.02;entryY=0.813;entryDx=0;entryDy=0;entryPerimeter=0;strokeWidth=2;fillColor=#1ba1e2;strokeColor=#006EAF;" edge="1" parent="1" source="2JEYmWJFFLFLOrOE8Tzi-28" target="2JEYmWJFFLFLOrOE8Tzi-72">
          <mxGeometry relative="1" as="geometry" />
        </mxCell>
        <mxCell id="2JEYmWJFFLFLOrOE8Tzi-87" value="Utente" style="shape=table;startSize=30;container=1;collapsible=1;childLayout=tableLayout;fixedRows=1;rowLines=0;fontStyle=1;align=center;resizeLast=1;html=1;fillColor=#f0a30a;fontColor=#000000;strokeColor=#BD7000;" vertex="1" parent="1">
          <mxGeometry x="290" y="400" width="180" height="150" as="geometry" />
        </mxCell>
        <mxCell id="2JEYmWJFFLFLOrOE8Tzi-88" value="" style="shape=tableRow;horizontal=0;startSize=0;swimlaneHead=0;swimlaneBody=0;fillColor=#60a917;collapsible=0;dropTarget=0;points=[[0,0.5],[1,0.5]];portConstraint=eastwest;top=0;left=0;right=0;bottom=1;fontColor=#ffffff;strokeColor=#2D7600;" vertex="1" parent="2JEYmWJFFLFLOrOE8Tzi-87">
          <mxGeometry y="30" width="180" height="30" as="geometry" />
        </mxCell>
        <mxCell id="2JEYmWJFFLFLOrOE8Tzi-89" value="PK" style="shape=partialRectangle;connectable=0;fillColor=none;top=0;left=0;bottom=0;right=0;fontStyle=1;overflow=hidden;whiteSpace=wrap;html=1;" vertex="1" parent="2JEYmWJFFLFLOrOE8Tzi-88">
          <mxGeometry width="30" height="30" as="geometry">
            <mxRectangle width="30" height="30" as="alternateBounds" />
          </mxGeometry>
        </mxCell>
        <mxCell id="2JEYmWJFFLFLOrOE8Tzi-90" value="id_utente" style="shape=partialRectangle;connectable=0;fillColor=none;top=0;left=0;bottom=0;right=0;align=left;spacingLeft=6;fontStyle=5;overflow=hidden;whiteSpace=wrap;html=1;" vertex="1" parent="2JEYmWJFFLFLOrOE8Tzi-88">
          <mxGeometry x="30" width="150" height="30" as="geometry">
            <mxRectangle width="150" height="30" as="alternateBounds" />
          </mxGeometry>
        </mxCell>
        <mxCell id="2JEYmWJFFLFLOrOE8Tzi-91" value="" style="shape=tableRow;horizontal=0;startSize=0;swimlaneHead=0;swimlaneBody=0;fillColor=#0050ef;collapsible=0;dropTarget=0;points=[[0,0.5],[1,0.5]];portConstraint=eastwest;top=0;left=0;right=0;bottom=0;fontColor=#ffffff;strokeColor=#001DBC;" vertex="1" parent="2JEYmWJFFLFLOrOE8Tzi-87">
          <mxGeometry y="60" width="180" height="30" as="geometry" />
        </mxCell>
        <mxCell id="2JEYmWJFFLFLOrOE8Tzi-92" value="FK" style="shape=partialRectangle;connectable=0;fillColor=none;top=0;left=0;bottom=0;right=0;editable=1;overflow=hidden;whiteSpace=wrap;html=1;fontStyle=1" vertex="1" parent="2JEYmWJFFLFLOrOE8Tzi-91">
          <mxGeometry width="30" height="30" as="geometry">
            <mxRectangle width="30" height="30" as="alternateBounds" />
          </mxGeometry>
        </mxCell>
        <mxCell id="2JEYmWJFFLFLOrOE8Tzi-93" value="id_cespite" style="shape=partialRectangle;connectable=0;fillColor=none;top=0;left=0;bottom=0;right=0;align=left;spacingLeft=6;overflow=hidden;whiteSpace=wrap;html=1;fontStyle=1" vertex="1" parent="2JEYmWJFFLFLOrOE8Tzi-91">
          <mxGeometry x="30" width="150" height="30" as="geometry">
            <mxRectangle width="150" height="30" as="alternateBounds" />
          </mxGeometry>
        </mxCell>
        <mxCell id="2JEYmWJFFLFLOrOE8Tzi-94" value="" style="shape=tableRow;horizontal=0;startSize=0;swimlaneHead=0;swimlaneBody=0;fillColor=none;collapsible=0;dropTarget=0;points=[[0,0.5],[1,0.5]];portConstraint=eastwest;top=0;left=0;right=0;bottom=0;" vertex="1" parent="2JEYmWJFFLFLOrOE8Tzi-87">
          <mxGeometry y="90" width="180" height="30" as="geometry" />
        </mxCell>
        <mxCell id="2JEYmWJFFLFLOrOE8Tzi-95" value="" style="shape=partialRectangle;connectable=0;fillColor=none;top=0;left=0;bottom=0;right=0;editable=1;overflow=hidden;whiteSpace=wrap;html=1;" vertex="1" parent="2JEYmWJFFLFLOrOE8Tzi-94">
          <mxGeometry width="30" height="30" as="geometry">
            <mxRectangle width="30" height="30" as="alternateBounds" />
          </mxGeometry>
        </mxCell>
        <mxCell id="2JEYmWJFFLFLOrOE8Tzi-96" value="cognome" style="shape=partialRectangle;connectable=0;fillColor=none;top=0;left=0;bottom=0;right=0;align=left;spacingLeft=6;overflow=hidden;whiteSpace=wrap;html=1;" vertex="1" parent="2JEYmWJFFLFLOrOE8Tzi-94">
          <mxGeometry x="30" width="150" height="30" as="geometry">
            <mxRectangle width="150" height="30" as="alternateBounds" />
          </mxGeometry>
        </mxCell>
        <mxCell id="2JEYmWJFFLFLOrOE8Tzi-97" value="" style="shape=tableRow;horizontal=0;startSize=0;swimlaneHead=0;swimlaneBody=0;fillColor=none;collapsible=0;dropTarget=0;points=[[0,0.5],[1,0.5]];portConstraint=eastwest;top=0;left=0;right=0;bottom=0;" vertex="1" parent="2JEYmWJFFLFLOrOE8Tzi-87">
          <mxGeometry y="120" width="180" height="30" as="geometry" />
        </mxCell>
        <mxCell id="2JEYmWJFFLFLOrOE8Tzi-98" value="" style="shape=partialRectangle;connectable=0;fillColor=none;top=0;left=0;bottom=0;right=0;editable=1;overflow=hidden;whiteSpace=wrap;html=1;" vertex="1" parent="2JEYmWJFFLFLOrOE8Tzi-97">
          <mxGeometry width="30" height="30" as="geometry">
            <mxRectangle width="30" height="30" as="alternateBounds" />
          </mxGeometry>
        </mxCell>
        <mxCell id="2JEYmWJFFLFLOrOE8Tzi-99" value="categoria" style="shape=partialRectangle;connectable=0;fillColor=none;top=0;left=0;bottom=0;right=0;align=left;spacingLeft=6;overflow=hidden;whiteSpace=wrap;html=1;" vertex="1" parent="2JEYmWJFFLFLOrOE8Tzi-97">
          <mxGeometry x="30" width="150" height="30" as="geometry">
            <mxRectangle width="150" height="30" as="alternateBounds" />
          </mxGeometry>
        </mxCell>
        <mxCell id="2JEYmWJFFLFLOrOE8Tzi-103" style="edgeStyle=orthogonalEdgeStyle;rounded=0;orthogonalLoop=1;jettySize=auto;html=1;" edge="1" parent="1" source="2JEYmWJFFLFLOrOE8Tzi-100">
          <mxGeometry relative="1" as="geometry">
            <mxPoint x="880" y="520" as="targetPoint" />
          </mxGeometry>
        </mxCell>
        <mxCell id="2JEYmWJFFLFLOrOE8Tzi-104" value="Numerazioni poste fuori dal singolo ufficio" style="text;html=1;align=center;verticalAlign=middle;resizable=0;points=[];autosize=1;strokeColor=none;fillColor=none;" vertex="1" parent="1">
          <mxGeometry x="755" y="520" width="250" height="30" as="geometry" />
        </mxCell>
        <mxCell id="2JEYmWJFFLFLOrOE8Tzi-106" style="edgeStyle=orthogonalEdgeStyle;rounded=0;orthogonalLoop=1;jettySize=auto;html=1;" edge="1" parent="1" source="2JEYmWJFFLFLOrOE8Tzi-51">
          <mxGeometry relative="1" as="geometry">
            <mxPoint x="940" y="445" as="targetPoint" />
          </mxGeometry>
        </mxCell>
        <mxCell id="2JEYmWJFFLFLOrOE8Tzi-107" style="edgeStyle=orthogonalEdgeStyle;rounded=0;orthogonalLoop=1;jettySize=auto;html=1;" edge="1" parent="1" source="2JEYmWJFFLFLOrOE8Tzi-48">
          <mxGeometry relative="1" as="geometry">
            <mxPoint x="940" y="415" as="targetPoint" />
          </mxGeometry>
        </mxCell>
        <mxCell id="2JEYmWJFFLFLOrOE8Tzi-108" value="SI/NO" style="text;html=1;align=center;verticalAlign=middle;resizable=0;points=[];autosize=1;strokeColor=none;fillColor=none;" vertex="1" parent="1">
          <mxGeometry x="950" y="400" width="60" height="30" as="geometry" />
        </mxCell>
        <mxCell id="2JEYmWJFFLFLOrOE8Tzi-110" style="edgeStyle=orthogonalEdgeStyle;rounded=0;orthogonalLoop=1;jettySize=auto;html=1;entryX=0.5;entryY=0;entryDx=0;entryDy=0;strokeWidth=2;fillColor=#d80073;strokeColor=#A50040;" edge="1" parent="1" source="2JEYmWJFFLFLOrOE8Tzi-42" target="2JEYmWJFFLFLOrOE8Tzi-87">
          <mxGeometry relative="1" as="geometry" />
        </mxCell>
        <mxCell id="2JEYmWJFFLFLOrOE8Tzi-111" value="Sede" style="shape=table;startSize=30;container=1;collapsible=1;childLayout=tableLayout;fixedRows=1;rowLines=0;fontStyle=1;align=center;resizeLast=1;html=1;fillColor=#f0a30a;fontColor=#000000;strokeColor=#BD7000;" vertex="1" parent="1">
          <mxGeometry x="1120" y="400" width="180" height="180" as="geometry" />
        </mxCell>
        <mxCell id="2JEYmWJFFLFLOrOE8Tzi-112" value="" style="shape=tableRow;horizontal=0;startSize=0;swimlaneHead=0;swimlaneBody=0;fillColor=#60a917;collapsible=0;dropTarget=0;points=[[0,0.5],[1,0.5]];portConstraint=eastwest;top=0;left=0;right=0;bottom=1;fontColor=#ffffff;strokeColor=#2D7600;" vertex="1" parent="2JEYmWJFFLFLOrOE8Tzi-111">
          <mxGeometry y="30" width="180" height="30" as="geometry" />
        </mxCell>
        <mxCell id="2JEYmWJFFLFLOrOE8Tzi-113" value="PK" style="shape=partialRectangle;connectable=0;fillColor=none;top=0;left=0;bottom=0;right=0;fontStyle=1;overflow=hidden;whiteSpace=wrap;html=1;" vertex="1" parent="2JEYmWJFFLFLOrOE8Tzi-112">
          <mxGeometry width="30" height="30" as="geometry">
            <mxRectangle width="30" height="30" as="alternateBounds" />
          </mxGeometry>
        </mxCell>
        <mxCell id="2JEYmWJFFLFLOrOE8Tzi-114" value="id_sede" style="shape=partialRectangle;connectable=0;fillColor=none;top=0;left=0;bottom=0;right=0;align=left;spacingLeft=6;fontStyle=5;overflow=hidden;whiteSpace=wrap;html=1;" vertex="1" parent="2JEYmWJFFLFLOrOE8Tzi-112">
          <mxGeometry x="30" width="150" height="30" as="geometry">
            <mxRectangle width="150" height="30" as="alternateBounds" />
          </mxGeometry>
        </mxCell>
        <mxCell id="2JEYmWJFFLFLOrOE8Tzi-115" value="" style="shape=tableRow;horizontal=0;startSize=0;swimlaneHead=0;swimlaneBody=0;fillColor=none;collapsible=0;dropTarget=0;points=[[0,0.5],[1,0.5]];portConstraint=eastwest;top=0;left=0;right=0;bottom=0;" vertex="1" parent="2JEYmWJFFLFLOrOE8Tzi-111">
          <mxGeometry y="60" width="180" height="30" as="geometry" />
        </mxCell>
        <mxCell id="2JEYmWJFFLFLOrOE8Tzi-116" value="" style="shape=partialRectangle;connectable=0;fillColor=none;top=0;left=0;bottom=0;right=0;editable=1;overflow=hidden;whiteSpace=wrap;html=1;" vertex="1" parent="2JEYmWJFFLFLOrOE8Tzi-115">
          <mxGeometry width="30" height="30" as="geometry">
            <mxRectangle width="30" height="30" as="alternateBounds" />
          </mxGeometry>
        </mxCell>
        <mxCell id="2JEYmWJFFLFLOrOE8Tzi-117" value="locazione" style="shape=partialRectangle;connectable=0;fillColor=none;top=0;left=0;bottom=0;right=0;align=left;spacingLeft=6;overflow=hidden;whiteSpace=wrap;html=1;" vertex="1" parent="2JEYmWJFFLFLOrOE8Tzi-115">
          <mxGeometry x="30" width="150" height="30" as="geometry">
            <mxRectangle width="150" height="30" as="alternateBounds" />
          </mxGeometry>
        </mxCell>
        <mxCell id="2JEYmWJFFLFLOrOE8Tzi-118" value="" style="shape=tableRow;horizontal=0;startSize=0;swimlaneHead=0;swimlaneBody=0;fillColor=none;collapsible=0;dropTarget=0;points=[[0,0.5],[1,0.5]];portConstraint=eastwest;top=0;left=0;right=0;bottom=0;" vertex="1" parent="2JEYmWJFFLFLOrOE8Tzi-111">
          <mxGeometry y="90" width="180" height="30" as="geometry" />
        </mxCell>
        <mxCell id="2JEYmWJFFLFLOrOE8Tzi-119" value="" style="shape=partialRectangle;connectable=0;fillColor=none;top=0;left=0;bottom=0;right=0;editable=1;overflow=hidden;whiteSpace=wrap;html=1;" vertex="1" parent="2JEYmWJFFLFLOrOE8Tzi-118">
          <mxGeometry width="30" height="30" as="geometry">
            <mxRectangle width="30" height="30" as="alternateBounds" />
          </mxGeometry>
        </mxCell>
        <mxCell id="2JEYmWJFFLFLOrOE8Tzi-120" value="azzonamento" style="shape=partialRectangle;connectable=0;fillColor=none;top=0;left=0;bottom=0;right=0;align=left;spacingLeft=6;overflow=hidden;whiteSpace=wrap;html=1;" vertex="1" parent="2JEYmWJFFLFLOrOE8Tzi-118">
          <mxGeometry x="30" width="150" height="30" as="geometry">
            <mxRectangle width="150" height="30" as="alternateBounds" />
          </mxGeometry>
        </mxCell>
        <mxCell id="2JEYmWJFFLFLOrOE8Tzi-121" value="" style="shape=tableRow;horizontal=0;startSize=0;swimlaneHead=0;swimlaneBody=0;fillColor=none;collapsible=0;dropTarget=0;points=[[0,0.5],[1,0.5]];portConstraint=eastwest;top=0;left=0;right=0;bottom=0;" vertex="1" parent="2JEYmWJFFLFLOrOE8Tzi-111">
          <mxGeometry y="120" width="180" height="30" as="geometry" />
        </mxCell>
        <mxCell id="2JEYmWJFFLFLOrOE8Tzi-122" value="" style="shape=partialRectangle;connectable=0;fillColor=none;top=0;left=0;bottom=0;right=0;editable=1;overflow=hidden;whiteSpace=wrap;html=1;" vertex="1" parent="2JEYmWJFFLFLOrOE8Tzi-121">
          <mxGeometry width="30" height="30" as="geometry">
            <mxRectangle width="30" height="30" as="alternateBounds" />
          </mxGeometry>
        </mxCell>
        <mxCell id="2JEYmWJFFLFLOrOE8Tzi-123" value="indirizzo" style="shape=partialRectangle;connectable=0;fillColor=none;top=0;left=0;bottom=0;right=0;align=left;spacingLeft=6;overflow=hidden;whiteSpace=wrap;html=1;" vertex="1" parent="2JEYmWJFFLFLOrOE8Tzi-121">
          <mxGeometry x="30" width="150" height="30" as="geometry">
            <mxRectangle width="150" height="30" as="alternateBounds" />
          </mxGeometry>
        </mxCell>
        <mxCell id="2JEYmWJFFLFLOrOE8Tzi-124" value="" style="shape=tableRow;horizontal=0;startSize=0;swimlaneHead=0;swimlaneBody=0;fillColor=none;collapsible=0;dropTarget=0;points=[[0,0.5],[1,0.5]];portConstraint=eastwest;top=0;left=0;right=0;bottom=0;" vertex="1" parent="2JEYmWJFFLFLOrOE8Tzi-111">
          <mxGeometry y="150" width="180" height="30" as="geometry" />
        </mxCell>
        <mxCell id="2JEYmWJFFLFLOrOE8Tzi-125" value="" style="shape=partialRectangle;connectable=0;fillColor=none;top=0;left=0;bottom=0;right=0;editable=1;overflow=hidden;whiteSpace=wrap;html=1;" vertex="1" parent="2JEYmWJFFLFLOrOE8Tzi-124">
          <mxGeometry width="30" height="30" as="geometry">
            <mxRectangle width="30" height="30" as="alternateBounds" />
          </mxGeometry>
        </mxCell>
        <mxCell id="2JEYmWJFFLFLOrOE8Tzi-126" value="telefono" style="shape=partialRectangle;connectable=0;fillColor=none;top=0;left=0;bottom=0;right=0;align=left;spacingLeft=6;overflow=hidden;whiteSpace=wrap;html=1;" vertex="1" parent="2JEYmWJFFLFLOrOE8Tzi-124">
          <mxGeometry x="30" width="150" height="30" as="geometry">
            <mxRectangle width="150" height="30" as="alternateBounds" />
          </mxGeometry>
        </mxCell>
        <mxCell id="2JEYmWJFFLFLOrOE8Tzi-127" style="edgeStyle=orthogonalEdgeStyle;rounded=0;orthogonalLoop=1;jettySize=auto;html=1;entryX=1.012;entryY=0.742;entryDx=0;entryDy=0;entryPerimeter=0;strokeWidth=2;fillColor=#d80073;strokeColor=#A50040;" edge="1" parent="1" source="2JEYmWJFFLFLOrOE8Tzi-111" target="2JEYmWJFFLFLOrOE8Tzi-42">
          <mxGeometry relative="1" as="geometry" />
        </mxCell>
        <mxCell id="2JEYmWJFFLFLOrOE8Tzi-128" value="Tracking" style="shape=table;startSize=30;container=1;collapsible=1;childLayout=tableLayout;fixedRows=1;rowLines=0;fontStyle=1;align=center;resizeLast=1;html=1;fillColor=#f0a30a;fontColor=#000000;strokeColor=#BD7000;" vertex="1" parent="1">
          <mxGeometry x="670" y="640" width="180" height="210" as="geometry" />
        </mxCell>
        <mxCell id="2JEYmWJFFLFLOrOE8Tzi-129" value="" style="shape=tableRow;horizontal=0;startSize=0;swimlaneHead=0;swimlaneBody=0;fillColor=#60a917;collapsible=0;dropTarget=0;points=[[0,0.5],[1,0.5]];portConstraint=eastwest;top=0;left=0;right=0;bottom=1;fontColor=#ffffff;strokeColor=#2D7600;" vertex="1" parent="2JEYmWJFFLFLOrOE8Tzi-128">
          <mxGeometry y="30" width="180" height="30" as="geometry" />
        </mxCell>
        <mxCell id="2JEYmWJFFLFLOrOE8Tzi-130" value="PK" style="shape=partialRectangle;connectable=0;fillColor=none;top=0;left=0;bottom=0;right=0;fontStyle=1;overflow=hidden;whiteSpace=wrap;html=1;" vertex="1" parent="2JEYmWJFFLFLOrOE8Tzi-129">
          <mxGeometry width="30" height="30" as="geometry">
            <mxRectangle width="30" height="30" as="alternateBounds" />
          </mxGeometry>
        </mxCell>
        <mxCell id="2JEYmWJFFLFLOrOE8Tzi-131" value="id_tracking" style="shape=partialRectangle;connectable=0;fillColor=none;top=0;left=0;bottom=0;right=0;align=left;spacingLeft=6;fontStyle=5;overflow=hidden;whiteSpace=wrap;html=1;" vertex="1" parent="2JEYmWJFFLFLOrOE8Tzi-129">
          <mxGeometry x="30" width="150" height="30" as="geometry">
            <mxRectangle width="150" height="30" as="alternateBounds" />
          </mxGeometry>
        </mxCell>
        <mxCell id="2JEYmWJFFLFLOrOE8Tzi-132" value="" style="shape=tableRow;horizontal=0;startSize=0;swimlaneHead=0;swimlaneBody=0;fillColor=#0050ef;collapsible=0;dropTarget=0;points=[[0,0.5],[1,0.5]];portConstraint=eastwest;top=0;left=0;right=0;bottom=0;fontColor=#ffffff;strokeColor=#001DBC;" vertex="1" parent="2JEYmWJFFLFLOrOE8Tzi-128">
          <mxGeometry y="60" width="180" height="30" as="geometry" />
        </mxCell>
        <mxCell id="2JEYmWJFFLFLOrOE8Tzi-133" value="FK" style="shape=partialRectangle;connectable=0;fillColor=none;top=0;left=0;bottom=0;right=0;editable=1;overflow=hidden;whiteSpace=wrap;html=1;fontStyle=1" vertex="1" parent="2JEYmWJFFLFLOrOE8Tzi-132">
          <mxGeometry width="30" height="30" as="geometry">
            <mxRectangle width="30" height="30" as="alternateBounds" />
          </mxGeometry>
        </mxCell>
        <mxCell id="2JEYmWJFFLFLOrOE8Tzi-134" value="id_sede" style="shape=partialRectangle;connectable=0;fillColor=none;top=0;left=0;bottom=0;right=0;align=left;spacingLeft=6;overflow=hidden;whiteSpace=wrap;html=1;fontStyle=1" vertex="1" parent="2JEYmWJFFLFLOrOE8Tzi-132">
          <mxGeometry x="30" width="150" height="30" as="geometry">
            <mxRectangle width="150" height="30" as="alternateBounds" />
          </mxGeometry>
        </mxCell>
        <mxCell id="2JEYmWJFFLFLOrOE8Tzi-135" value="" style="shape=tableRow;horizontal=0;startSize=0;swimlaneHead=0;swimlaneBody=0;fillColor=#0050ef;collapsible=0;dropTarget=0;points=[[0,0.5],[1,0.5]];portConstraint=eastwest;top=0;left=0;right=0;bottom=0;fontColor=#ffffff;strokeColor=#001DBC;" vertex="1" parent="2JEYmWJFFLFLOrOE8Tzi-128">
          <mxGeometry y="90" width="180" height="30" as="geometry" />
        </mxCell>
        <mxCell id="2JEYmWJFFLFLOrOE8Tzi-136" value="FK" style="shape=partialRectangle;connectable=0;fillColor=none;top=0;left=0;bottom=0;right=0;editable=1;overflow=hidden;whiteSpace=wrap;html=1;fontStyle=1" vertex="1" parent="2JEYmWJFFLFLOrOE8Tzi-135">
          <mxGeometry width="30" height="30" as="geometry">
            <mxRectangle width="30" height="30" as="alternateBounds" />
          </mxGeometry>
        </mxCell>
        <mxCell id="2JEYmWJFFLFLOrOE8Tzi-137" value="id_cespite" style="shape=partialRectangle;connectable=0;fillColor=none;top=0;left=0;bottom=0;right=0;align=left;spacingLeft=6;overflow=hidden;whiteSpace=wrap;html=1;fontStyle=1" vertex="1" parent="2JEYmWJFFLFLOrOE8Tzi-135">
          <mxGeometry x="30" width="150" height="30" as="geometry">
            <mxRectangle width="150" height="30" as="alternateBounds" />
          </mxGeometry>
        </mxCell>
        <mxCell id="2JEYmWJFFLFLOrOE8Tzi-138" value="" style="shape=tableRow;horizontal=0;startSize=0;swimlaneHead=0;swimlaneBody=0;fillColor=none;collapsible=0;dropTarget=0;points=[[0,0.5],[1,0.5]];portConstraint=eastwest;top=0;left=0;right=0;bottom=0;" vertex="1" parent="2JEYmWJFFLFLOrOE8Tzi-128">
          <mxGeometry y="120" width="180" height="30" as="geometry" />
        </mxCell>
        <mxCell id="2JEYmWJFFLFLOrOE8Tzi-139" value="" style="shape=partialRectangle;connectable=0;fillColor=none;top=0;left=0;bottom=0;right=0;editable=1;overflow=hidden;whiteSpace=wrap;html=1;" vertex="1" parent="2JEYmWJFFLFLOrOE8Tzi-138">
          <mxGeometry width="30" height="30" as="geometry">
            <mxRectangle width="30" height="30" as="alternateBounds" />
          </mxGeometry>
        </mxCell>
        <mxCell id="2JEYmWJFFLFLOrOE8Tzi-140" value="motivo_spostamento" style="shape=partialRectangle;connectable=0;fillColor=none;top=0;left=0;bottom=0;right=0;align=left;spacingLeft=6;overflow=hidden;whiteSpace=wrap;html=1;" vertex="1" parent="2JEYmWJFFLFLOrOE8Tzi-138">
          <mxGeometry x="30" width="150" height="30" as="geometry">
            <mxRectangle width="150" height="30" as="alternateBounds" />
          </mxGeometry>
        </mxCell>
        <mxCell id="2JEYmWJFFLFLOrOE8Tzi-141" value="" style="shape=tableRow;horizontal=0;startSize=0;swimlaneHead=0;swimlaneBody=0;fillColor=none;collapsible=0;dropTarget=0;points=[[0,0.5],[1,0.5]];portConstraint=eastwest;top=0;left=0;right=0;bottom=0;" vertex="1" parent="2JEYmWJFFLFLOrOE8Tzi-128">
          <mxGeometry y="150" width="180" height="30" as="geometry" />
        </mxCell>
        <mxCell id="2JEYmWJFFLFLOrOE8Tzi-142" value="" style="shape=partialRectangle;connectable=0;fillColor=none;top=0;left=0;bottom=0;right=0;editable=1;overflow=hidden;whiteSpace=wrap;html=1;" vertex="1" parent="2JEYmWJFFLFLOrOE8Tzi-141">
          <mxGeometry width="30" height="30" as="geometry">
            <mxRectangle width="30" height="30" as="alternateBounds" />
          </mxGeometry>
        </mxCell>
        <mxCell id="2JEYmWJFFLFLOrOE8Tzi-143" value="data_spostamento" style="shape=partialRectangle;connectable=0;fillColor=none;top=0;left=0;bottom=0;right=0;align=left;spacingLeft=6;overflow=hidden;whiteSpace=wrap;html=1;" vertex="1" parent="2JEYmWJFFLFLOrOE8Tzi-141">
          <mxGeometry x="30" width="150" height="30" as="geometry">
            <mxRectangle width="150" height="30" as="alternateBounds" />
          </mxGeometry>
        </mxCell>
        <mxCell id="2JEYmWJFFLFLOrOE8Tzi-144" value="" style="shape=tableRow;horizontal=0;startSize=0;swimlaneHead=0;swimlaneBody=0;fillColor=none;collapsible=0;dropTarget=0;points=[[0,0.5],[1,0.5]];portConstraint=eastwest;top=0;left=0;right=0;bottom=0;" vertex="1" parent="2JEYmWJFFLFLOrOE8Tzi-128">
          <mxGeometry y="180" width="180" height="30" as="geometry" />
        </mxCell>
        <mxCell id="2JEYmWJFFLFLOrOE8Tzi-145" value="" style="shape=partialRectangle;connectable=0;fillColor=none;top=0;left=0;bottom=0;right=0;editable=1;overflow=hidden;whiteSpace=wrap;html=1;" vertex="1" parent="2JEYmWJFFLFLOrOE8Tzi-144">
          <mxGeometry width="30" height="30" as="geometry">
            <mxRectangle width="30" height="30" as="alternateBounds" />
          </mxGeometry>
        </mxCell>
        <mxCell id="2JEYmWJFFLFLOrOE8Tzi-146" value="documento_richiesta" style="shape=partialRectangle;connectable=0;fillColor=none;top=0;left=0;bottom=0;right=0;align=left;spacingLeft=6;overflow=hidden;whiteSpace=wrap;html=1;" vertex="1" parent="2JEYmWJFFLFLOrOE8Tzi-144">
          <mxGeometry x="30" width="150" height="30" as="geometry">
            <mxRectangle width="150" height="30" as="alternateBounds" />
          </mxGeometry>
        </mxCell>
        <mxCell id="2JEYmWJFFLFLOrOE8Tzi-151" style="edgeStyle=orthogonalEdgeStyle;rounded=0;orthogonalLoop=1;jettySize=auto;html=1;entryX=1;entryY=0.5;entryDx=0;entryDy=0;strokeWidth=2;fillColor=#60a917;strokeColor=#2D7600;" edge="1" parent="1" source="2JEYmWJFFLFLOrOE8Tzi-124" target="2JEYmWJFFLFLOrOE8Tzi-132">
          <mxGeometry relative="1" as="geometry">
            <Array as="points">
              <mxPoint x="1210" y="715" />
            </Array>
          </mxGeometry>
        </mxCell>
        <mxCell id="2JEYmWJFFLFLOrOE8Tzi-152" style="edgeStyle=orthogonalEdgeStyle;rounded=0;orthogonalLoop=1;jettySize=auto;html=1;entryX=0;entryY=0.5;entryDx=0;entryDy=0;strokeWidth=2;fillColor=#60a917;strokeColor=#2D7600;" edge="1" parent="1" source="2JEYmWJFFLFLOrOE8Tzi-51" target="2JEYmWJFFLFLOrOE8Tzi-135">
          <mxGeometry relative="1" as="geometry">
            <Array as="points">
              <mxPoint x="560" y="445" />
              <mxPoint x="560" y="745" />
            </Array>
          </mxGeometry>
        </mxCell>
        <mxCell id="2JEYmWJFFLFLOrOE8Tzi-153" value="&lt;font style=&quot;font-size: 25px;&quot;&gt;CREAZZIONE DELL&#39;ETICHETTA&amp;nbsp;&lt;/font&gt;" style="text;html=1;align=center;verticalAlign=middle;resizable=0;points=[];autosize=1;strokeColor=#BD7000;fillColor=#f0a30a;glass=0;fontColor=#000000;" vertex="1" parent="1">
          <mxGeometry x="-290" y="445" width="400" height="40" as="geometry" />
        </mxCell>
        <mxCell id="2JEYmWJFFLFLOrOE8Tzi-154" value="&lt;font style=&quot;font-size: 17px;&quot;&gt;&lt;font style=&quot;color: rgb(179, 255, 102);&quot;&gt;S&lt;/font&gt;08&lt;font style=&quot;color: rgb(0, 127, 255);&quot;&gt;N&lt;/font&gt;104&lt;font style=&quot;color: rgb(255, 51, 51);&quot;&gt;A&lt;/font&gt;2022&lt;font style=&quot;color: rgb(204, 204, 0);&quot;&gt;PA&lt;/font&gt;1/3&lt;/font&gt;" style="text;html=1;align=center;verticalAlign=middle;resizable=0;points=[];autosize=1;strokeColor=none;fillColor=none;" vertex="1" parent="1">
          <mxGeometry x="-400" y="570" width="190" height="30" as="geometry" />
        </mxCell>
        <mxCell id="2JEYmWJFFLFLOrOE8Tzi-155" style="edgeStyle=orthogonalEdgeStyle;rounded=0;orthogonalLoop=1;jettySize=auto;html=1;entryX=0.435;entryY=-0.106;entryDx=0;entryDy=0;entryPerimeter=0;" edge="1" parent="1" source="2JEYmWJFFLFLOrOE8Tzi-153" target="2JEYmWJFFLFLOrOE8Tzi-154">
          <mxGeometry relative="1" as="geometry">
            <Array as="points">
              <mxPoint x="-90" y="520" />
              <mxPoint x="-317" y="520" />
            </Array>
          </mxGeometry>
        </mxCell>
        <mxCell id="2JEYmWJFFLFLOrOE8Tzi-156" value="&lt;font style=&quot;color: rgb(179, 255, 102);&quot;&gt;S&lt;/font&gt; + ID_SOTTOSPECIE + &lt;font style=&quot;color: rgb(0, 127, 255);&quot;&gt;N&lt;/font&gt; + ID_CESPITE + &lt;font style=&quot;color: rgb(255, 51, 51);&quot;&gt;A&lt;/font&gt; + ANNO_ARRIVO + &lt;font style=&quot;color: rgb(204, 204, 0);&quot;&gt;PA&lt;/font&gt; + QTA SUL TOTALE" style="text;html=1;align=center;verticalAlign=middle;resizable=0;points=[];autosize=1;strokeColor=none;fillColor=none;" vertex="1" parent="1">
          <mxGeometry x="-140" y="630" width="520" height="30" as="geometry" />
        </mxCell>
        <mxCell id="2JEYmWJFFLFLOrOE8Tzi-157" style="edgeStyle=orthogonalEdgeStyle;rounded=0;orthogonalLoop=1;jettySize=auto;html=1;entryX=0.579;entryY=0.006;entryDx=0;entryDy=0;entryPerimeter=0;" edge="1" parent="1" source="2JEYmWJFFLFLOrOE8Tzi-153" target="2JEYmWJFFLFLOrOE8Tzi-156">
          <mxGeometry relative="1" as="geometry">
            <Array as="points">
              <mxPoint x="-90" y="520" />
              <mxPoint x="161" y="520" />
            </Array>
          </mxGeometry>
        </mxCell>
        <mxCell id="2JEYmWJFFLFLOrOE8Tzi-158" style="edgeStyle=orthogonalEdgeStyle;rounded=0;orthogonalLoop=1;jettySize=auto;html=1;fillColor=#fa6800;strokeColor=#C73500;strokeWidth=2;" edge="1" parent="1" source="2JEYmWJFFLFLOrOE8Tzi-12">
          <mxGeometry relative="1" as="geometry">
            <mxPoint x="480" y="-20" as="targetPoint" />
          </mxGeometry>
        </mxCell>
        <mxCell id="2JEYmWJFFLFLOrOE8Tzi-159" value="&lt;font style=&quot;font-size: 15px;&quot;&gt;Esempio tipologia sottospecie : MACCHINE-IMPIANTI&lt;/font&gt;" style="text;html=1;align=center;verticalAlign=middle;resizable=0;points=[];autosize=1;strokeColor=#C73500;fillColor=#fa6800;fontColor=#000000;" vertex="1" parent="1">
          <mxGeometry x="300" y="-60" width="380" height="30" as="geometry" />
        </mxCell>
        <mxCell id="2JEYmWJFFLFLOrOE8Tzi-170" style="edgeStyle=orthogonalEdgeStyle;rounded=0;orthogonalLoop=1;jettySize=auto;html=1;entryX=0;entryY=0.333;entryDx=0;entryDy=0;entryPerimeter=0;fillColor=#fa6800;strokeColor=#C73500;" edge="1" parent="1" source="2JEYmWJFFLFLOrOE8Tzi-160" target="2JEYmWJFFLFLOrOE8Tzi-172">
          <mxGeometry relative="1" as="geometry">
            <mxPoint x="-220" y="910" as="targetPoint" />
            <Array as="points">
              <mxPoint x="-200" y="745" />
              <mxPoint x="-200" y="900" />
            </Array>
          </mxGeometry>
        </mxCell>
        <mxCell id="2JEYmWJFFLFLOrOE8Tzi-160" value="Sottospecie" style="text;html=1;align=center;verticalAlign=middle;resizable=0;points=[];autosize=1;strokeColor=#2D7600;fillColor=#60a917;fontColor=#ffffff;" vertex="1" parent="1">
          <mxGeometry x="-170" y="730" width="90" height="30" as="geometry" />
        </mxCell>
        <mxCell id="2JEYmWJFFLFLOrOE8Tzi-162" style="edgeStyle=orthogonalEdgeStyle;rounded=0;orthogonalLoop=1;jettySize=auto;html=1;entryX=0.029;entryY=1;entryDx=0;entryDy=0;entryPerimeter=0;" edge="1" parent="1" source="2JEYmWJFFLFLOrOE8Tzi-160" target="2JEYmWJFFLFLOrOE8Tzi-156">
          <mxGeometry relative="1" as="geometry" />
        </mxCell>
        <mxCell id="2JEYmWJFFLFLOrOE8Tzi-163" value="Numero cespite" style="text;html=1;align=center;verticalAlign=middle;resizable=0;points=[];autosize=1;strokeColor=#001DBC;fillColor=#0050ef;fontColor=#ffffff;" vertex="1" parent="1">
          <mxGeometry x="-40" y="730" width="110" height="30" as="geometry" />
        </mxCell>
        <mxCell id="2JEYmWJFFLFLOrOE8Tzi-164" style="edgeStyle=orthogonalEdgeStyle;rounded=0;orthogonalLoop=1;jettySize=auto;html=1;entryX=0.299;entryY=0.922;entryDx=0;entryDy=0;entryPerimeter=0;" edge="1" parent="1" source="2JEYmWJFFLFLOrOE8Tzi-163" target="2JEYmWJFFLFLOrOE8Tzi-156">
          <mxGeometry relative="1" as="geometry" />
        </mxCell>
        <mxCell id="2JEYmWJFFLFLOrOE8Tzi-165" value="Anno di arrivo" style="text;html=1;align=center;verticalAlign=middle;resizable=0;points=[];autosize=1;strokeColor=#6F0000;fillColor=#a20025;fontColor=#ffffff;" vertex="1" parent="1">
          <mxGeometry x="80" y="730" width="100" height="30" as="geometry" />
        </mxCell>
        <mxCell id="2JEYmWJFFLFLOrOE8Tzi-171" style="edgeStyle=orthogonalEdgeStyle;rounded=0;orthogonalLoop=1;jettySize=auto;html=1;entryX=0.998;entryY=0.5;entryDx=0;entryDy=0;entryPerimeter=0;fillColor=#fa6800;strokeColor=#C73500;" edge="1" parent="1" source="2JEYmWJFFLFLOrOE8Tzi-167" target="2JEYmWJFFLFLOrOE8Tzi-172">
          <mxGeometry relative="1" as="geometry">
            <mxPoint x="360" y="920" as="targetPoint" />
            <Array as="points">
              <mxPoint x="360" y="745" />
              <mxPoint x="360" y="905" />
            </Array>
          </mxGeometry>
        </mxCell>
        <mxCell id="2JEYmWJFFLFLOrOE8Tzi-167" value="Progressivo Acquisti" style="text;html=1;align=center;verticalAlign=middle;resizable=0;points=[];autosize=1;strokeColor=#BD7000;fillColor=#f0a30a;fontColor=#000000;" vertex="1" parent="1">
          <mxGeometry x="200" y="730" width="130" height="30" as="geometry" />
        </mxCell>
        <mxCell id="2JEYmWJFFLFLOrOE8Tzi-168" style="edgeStyle=orthogonalEdgeStyle;rounded=0;orthogonalLoop=1;jettySize=auto;html=1;entryX=0.745;entryY=1.011;entryDx=0;entryDy=0;entryPerimeter=0;" edge="1" parent="1" source="2JEYmWJFFLFLOrOE8Tzi-167" target="2JEYmWJFFLFLOrOE8Tzi-156">
          <mxGeometry relative="1" as="geometry">
            <Array as="points">
              <mxPoint x="247" y="695" />
            </Array>
          </mxGeometry>
        </mxCell>
        <mxCell id="2JEYmWJFFLFLOrOE8Tzi-169" style="edgeStyle=orthogonalEdgeStyle;rounded=0;orthogonalLoop=1;jettySize=auto;html=1;entryX=0.503;entryY=0.967;entryDx=0;entryDy=0;entryPerimeter=0;" edge="1" parent="1" source="2JEYmWJFFLFLOrOE8Tzi-165" target="2JEYmWJFFLFLOrOE8Tzi-156">
          <mxGeometry relative="1" as="geometry">
            <Array as="points">
              <mxPoint x="190" y="745" />
              <mxPoint x="190" y="680" />
              <mxPoint x="122" y="680" />
            </Array>
          </mxGeometry>
        </mxCell>
        <mxCell id="2JEYmWJFFLFLOrOE8Tzi-172" value="SONO ACRONIMI STANDARD PER LA COMPOSIZIONE DELL&#39;ETICHETTA" style="text;html=1;align=center;verticalAlign=middle;resizable=0;points=[];autosize=1;strokeColor=#C73500;fillColor=#fa6800;fontColor=#000000;" vertex="1" parent="1">
          <mxGeometry x="-140" y="890" width="430" height="30" as="geometry" />
        </mxCell>
        <mxCell id="2JEYmWJFFLFLOrOE8Tzi-173" style="edgeStyle=orthogonalEdgeStyle;rounded=0;orthogonalLoop=1;jettySize=auto;html=1;entryX=0.943;entryY=-0.056;entryDx=0;entryDy=0;entryPerimeter=0;" edge="1" parent="1" source="2JEYmWJFFLFLOrOE8Tzi-167" target="2JEYmWJFFLFLOrOE8Tzi-172">
          <mxGeometry relative="1" as="geometry" />
        </mxCell>
        <mxCell id="2JEYmWJFFLFLOrOE8Tzi-174" style="edgeStyle=orthogonalEdgeStyle;rounded=0;orthogonalLoop=1;jettySize=auto;html=1;entryX=0.628;entryY=0;entryDx=0;entryDy=0;entryPerimeter=0;" edge="1" parent="1" source="2JEYmWJFFLFLOrOE8Tzi-165" target="2JEYmWJFFLFLOrOE8Tzi-172">
          <mxGeometry relative="1" as="geometry" />
        </mxCell>
        <mxCell id="2JEYmWJFFLFLOrOE8Tzi-175" style="edgeStyle=orthogonalEdgeStyle;rounded=0;orthogonalLoop=1;jettySize=auto;html=1;entryX=0.361;entryY=-0.122;entryDx=0;entryDy=0;entryPerimeter=0;" edge="1" parent="1" source="2JEYmWJFFLFLOrOE8Tzi-163" target="2JEYmWJFFLFLOrOE8Tzi-172">
          <mxGeometry relative="1" as="geometry" />
        </mxCell>
        <mxCell id="2JEYmWJFFLFLOrOE8Tzi-176" style="edgeStyle=orthogonalEdgeStyle;rounded=0;orthogonalLoop=1;jettySize=auto;html=1;entryX=0.034;entryY=0.011;entryDx=0;entryDy=0;entryPerimeter=0;" edge="1" parent="1" source="2JEYmWJFFLFLOrOE8Tzi-160" target="2JEYmWJFFLFLOrOE8Tzi-172">
          <mxGeometry relative="1" as="geometry" />
        </mxCell>
        <mxCell id="2JEYmWJFFLFLOrOE8Tzi-177" value="&lt;b&gt;&lt;font style=&quot;color: rgb(255, 102, 102);&quot;&gt;CHAR (17)&lt;/font&gt;&lt;/b&gt;" style="text;html=1;align=center;verticalAlign=middle;resizable=0;points=[];autosize=1;strokeColor=none;fillColor=none;" vertex="1" parent="1">
          <mxGeometry x="-365" y="650" width="80" height="30" as="geometry" />
        </mxCell>
        <mxCell id="2JEYmWJFFLFLOrOE8Tzi-178" style="edgeStyle=orthogonalEdgeStyle;rounded=0;orthogonalLoop=1;jettySize=auto;html=1;entryX=-0.008;entryY=0.544;entryDx=0;entryDy=0;entryPerimeter=0;" edge="1" parent="1" source="2JEYmWJFFLFLOrOE8Tzi-154" target="2JEYmWJFFLFLOrOE8Tzi-177">
          <mxGeometry relative="1" as="geometry">
            <Array as="points">
              <mxPoint x="-420" y="585" />
              <mxPoint x="-420" y="666" />
            </Array>
          </mxGeometry>
        </mxCell>
        <mxCell id="2JEYmWJFFLFLOrOE8Tzi-179" value="&lt;b&gt;&lt;font style=&quot;color: rgb(179, 255, 102);&quot;&gt;Risultato finale&lt;/font&gt;&lt;/b&gt;" style="text;html=1;align=center;verticalAlign=middle;resizable=0;points=[];autosize=1;strokeColor=none;fillColor=none;" vertex="1" parent="1">
          <mxGeometry x="-140" y="568" width="110" height="30" as="geometry" />
        </mxCell>
        <mxCell id="2JEYmWJFFLFLOrOE8Tzi-180" style="edgeStyle=orthogonalEdgeStyle;rounded=0;orthogonalLoop=1;jettySize=auto;html=1;entryX=0.999;entryY=0.413;entryDx=0;entryDy=0;entryPerimeter=0;" edge="1" parent="1" source="2JEYmWJFFLFLOrOE8Tzi-179" target="2JEYmWJFFLFLOrOE8Tzi-154">
          <mxGeometry relative="1" as="geometry" />
        </mxCell>
      </root>
    </mxGraphModel>
  </diagram>
</mxfile>
